PathFileType	4	(X/Y/Z)	pose_F01_0-91.trc
DataRate	CameraRate	NumFrames	NumMarkers	Units	OrigDataRate	OrigDataStartFrame	OrigNumFrames
30	30	8	21	m	30	34	91
Frame#	Time	CHip			RHip			RKnee			RAnkle			RBigToe			RSmallToe			RHeel			LHip			LKnee			LAnkle			LBigToe			LSmallToe			LHeel			Neck			Nose			RShoulder			RElbow			RWrist			LShoulder			LElbow			LWrist			
		X1	Y1	Z1	X2	Y2	Z2	X3	Y3	Z3	X4	Y4	Z4	X5	Y5	Z5	X6	Y6	Z6	X7	Y7	Z7	X8	Y8	Z8	X9	Y9	Z9	X10	Y10	Z10	X11	Y11	Z11	X12	Y12	Z12	X13	Y13	Z13	X14	Y14	Z14	X15	Y15	Z15	X16	Y16	Z16	X17	Y17	Z17	X18	Y18	Z18	X19	Y19	Z19	X20	Y20	Z20	X21	Y21	Z21	
34	1.1333333333333333	-0.16136220019902944	1.8686439093097071	-0.6059134024379043	-0.17378855952155722	1.8628760543523346	-0.540489200779362	-0.2013690330518752	1.7356129765276826	-0.4574927592778585	-0.19554646615145993	1.597333409352224	-0.3921738823464078	-0.20518086165084057	1.5749627837428932	-0.37339874842517246	-0.19873538764215026	1.5877587476652217	-0.3591809035769447	-0.19273601062593476	1.588765507799408	-0.40391777913041244	-0.15046269376026988	1.8726046210179108	-0.6718285922214905	-0.16875632637365862	1.7318687364555325	-0.6788473247321188	-0.14867229992885603	1.585156911895853	-0.7355617834264772	-0.1840048104040814	1.5467381579852972	-0.6959616836247793	-0.2937059923640772	1.4872064981847697	-1.192886276039572	-0.13875647852488887	1.5681919169427652	-0.7388447506524197	-0.20266161838158706	2.015436499350247	-0.55409093544178	-0.23079094339579326	2.067646952662487	-0.5357559918439683	-0.210492970095924	2.0110286835986977	-0.4639584298491219	-0.22110275514527736	1.9627950584300806	-0.36145967975939775	-0.2610623840489907	1.9755477647374042	-0.38184007458189156	-0.19356623261324957	2.022213278815189	-0.638402168001604	-0.2333081229091565	1.986981426148783	-0.6227137983739591	-0.22322271543840302	2.0267126695705016	-0.5685983806061714
35	1.1666666666666667	-0.15961479983970348	1.8611664724617727	-0.6071589571847339	-0.1721400769694914	1.8554938534387366	-0.5415398270717326	-0.2006007573301754	1.7315450825959646	-0.4535431233032446	-0.19599453127703217	1.5969666140141814	-0.3913740773233193	-0.20518086165084057	1.5749627837428932	-0.37339874842517246	-0.19873538764215026	1.5877587476652217	-0.3591809035769447	-0.19457392095813988	1.5859957564346536	-0.40100531600662487	-0.14677416380197839	1.8642497783843572	-0.6752333763789119	-0.17127778870955201	1.731807786964277	-0.67626566001088	-0.14877218033964149	1.5825562056565496	-0.735284785104764	-0.30405272566754543	1.4888946890670565	-1.1793905949568761	-0.28662209760030916	1.4883890451461288	-1.2052119059466355	-0.13880411568591688	1.5684516958291457	-0.7388161037483949	-0.20101637953010457	2.005520999416465	-0.5552460379739991	-0.240280367967005	2.0528329120294164	-0.5274094871563524	-0.21000795675316486	2.0002054819591883	-0.4678851828551694	-0.22264187581289316	1.9515411895993413	-0.3800901798412291	-0.2607507934244204	1.9589626122268267	-0.3994396819057445	-0.19199550997100026	2.0109527545476955	-0.6397566541786848	-0.23628478352745397	1.956292624281656	-0.6065350743059746	-0.22494003981666863	2.0048570300357023	-0.5356394245224368
36	1.2	-0.15540417817245752	1.8588156350982794	-0.6114464824977761	-0.16806744647236455	1.8530562264385382	-0.5458041368536097	-0.20063013075359984	1.7344057478552788	-0.453789349217666	-0.19721330777209492	1.5979953871148815	-0.394393229560394	-0.20518086165084057	1.5749627837428932	-0.37339874842517246	-0.19873538764215026	1.5877587476652217	-0.3591809035769447	-0.19552278582633137	1.5855470459651884	-0.4042150690314692	-0.14452380086550048	1.861757818069422	-0.6772582454772937	-0.16907053522341656	1.7277978818747957	-0.6780995838923712	-0.15075610446316076	1.5840291185715933	-0.733635560340354	-0.3048063381097317	1.488965137467335	-1.1829079879558475	-0.28520038861363123	1.4877209434708472	-1.2123491410866962	-0.13860227269919057	1.569571081713481	-0.7395351062054537	-0.2014960978821159	1.996971621131315	-0.5545601662023334	-0.24257764172322574	2.042584967583079	-0.5234820237714238	-0.20962853315886418	1.9906439715477098	-0.463813368374213	-0.24510649803656442	1.92342561473254	-0.367466858787028	-0.22803823104337395	1.9654635199747033	-0.43940955248453845	-0.19116674906000247	2.003587520333448	-0.6443303602280227	-1.4325256203050554	1.8590563918264287	0.6465857087502712	-0.22779592673099247	1.9838152899873487	-0.5395842952650409
37	1.2333333333333334	-0.15479440446046283	1.8603620559135303	-0.6202997836591886	-0.16479201820285927	1.8559341180506814	-0.5539917870821859	-0.20055479872358067	1.7345573673356276	-0.45385530578981215	-0.19576249460081488	1.595615664132221	-0.3915605943169183	-0.20518086165084057	1.5749627837428932	-0.37339874842517246	-0.19873538764215026	1.5877587476652217	-0.3591809035769447	-0.19432550520602737	1.5844433335914496	-0.4011802733915394	-0.1429864501408726	1.8631328205038784	-0.682909851283313	-0.17099560721481305	1.7290448351245253	-0.6762883686232701	-0.14852474045098452	1.5811773751307487	-0.7355343268960495	-0.17852588211404236	1.546976523149617	-0.7100770248437889	-0.2856823240031574	1.4878861249192463	-1.200947636490058	-0.13659676239400836	1.5652474617623802	-0.7408482665688888	-0.1982497613972381	1.9985086937751722	-0.562702466051886	-0.24112926094032994	2.0341515054198505	-0.5249968994587746	-0.20674008598791285	1.9893086095221637	-0.4715026691225301	-0.24047608246185465	1.9211405778627715	-0.3769618437230689	-0.22265769847220052	1.9615011050659452	-0.4476437010918024	-0.18912950666234013	2.0037568602892204	-0.6472791909806146	-0.2361238257535736	1.9359090113358164	-0.6096093624621169	-0.2254767627257835	1.9872023007825173	-0.5419101203102015
38	1.2666666666666666	-0.15519961167724083	1.8592231670199166	-0.6203129471137212	-0.16490622040343025	1.8572880598086257	-0.5543680598613823	-0.19852859938494438	1.7370726611379204	-0.45658310269285357	-0.1959105218791043	1.5995842097762079	-0.39175360879284343	-0.20518086165084057	1.5749627837428932	-0.37339874842517246	-0.19873538764215026	1.5877587476652217	-0.3591809035769447	-0.1925710527227085	1.5882656338278198	-0.40340579313287933	-0.14336201706956134	1.8622105138210607	-0.6828811132635074	-0.16897431355057999	1.7305584833363503	-0.678439426924178	-0.15070966511651743	1.5838617197508844	-0.7335519443418789	-0.1786935800792497	1.54537989487607	-0.7094488426741631	-0.2824865346632235	1.4876094236529402	-1.2014425897892331	-0.1386749714600097	1.5706685775485663	-0.7393088045290819	-0.196234762741664	1.9999724916746302	-0.5654791971179389	-0.2411172585549783	2.034086479885912	-0.5249637435735451	-0.20547620692591692	1.9928165872888461	-0.4774793607671451	-0.2338965175541531	1.9241929006851404	-0.3810369472891373	-0.22299095188290893	1.9699926626083242	-0.46715185924617797	-0.18775605752833024	2.0064304881965946	-0.6529045780183691	-0.23291796174212254	1.9387442484197948	-0.608916262163213	-0.22465050232693776	1.988158248602859	-0.5479607629668228
39	1.3	-0.15587583007752356	1.8630909500672572	-0.623930691255745	-0.16563591233529948	1.8586675932427814	-0.5576412349043265	-0.1966878366480021	1.7386298006954934	-0.4586995213704476	-0.1972593819318195	1.6013849509210434	-0.39486717753905776	-0.20518086165084057	1.5749627837428932	-0.37339874842517246	-0.19873538764215026	1.5877587476652217	-0.3591809035769447	-0.19601934977251145	1.5913468493633487	-0.4041687951929849	-0.14326722576405915	1.865996684301089	-0.6834475228986504	-0.17128772947866316	1.731785282879729	-0.676216252978304	-0.1507918046861431	1.5838430491983646	-0.7333952046126225	-0.30276038040864545	1.484875631288576	-1.1749349007788452	-0.28243267926481447	1.4859821572523635	-1.2017132589347266	-0.14015797462402635	1.5706218401781353	-0.7339084907427962	-0.19489482682343193	2.0051665515156882	-0.5716672287499869	-0.24003149290683562	2.0379104117433857	-0.5229028072243959	-0.20153050288377738	1.9968445788788949	-0.48293304425442546	-0.23273902878646502	1.9307011970779042	-0.379021492802343	-0.22103059366184075	1.9724286766603836	-0.4528755840250625	-0.18530303387729277	2.0115275684483818	-0.6555643407962143	-0.2345344862502596	1.9475324891438928	-0.616799158578712	-0.22448023274117318	1.9910639730152637	-0.5485875558696782
40	1.3333333333333333	-0.15608312438115776	1.864211878281458	-0.6155192477903382	-0.16678508165579015	1.8624175101937332	-0.5527076789023215	-0.19432961295193804	1.7415733256086001	-0.45276656522676123	-0.1963650579623	1.6040928461820276	-0.40081699363211043	-0.20518086165084057	1.5749627837428932	-0.37339874842517246	-0.19873538764215026	1.5877587476652217	-0.3591809035769447	-0.19492543372063273	1.59308719076733	-0.4103868792959523	-0.1452101001048707	1.8672039542382688	-0.681155871571438	-0.16457062766216113	1.7308206478594512	-0.6832228918053049	-0.15290345876341432	1.583394309193065	-0.7311469368874915	-0.30189968773876574	1.4852157632507916	-1.1716260660443616	-0.2824954070108431	1.484263227675783	-1.2018761081892926	-0.13987824235449503	1.5717768428445544	-0.7343770716523597	-0.19169818696508628	2.009083301939866	-0.5713947575410785	-0.2398379274247323	2.0453252125798542	-0.5158927962886841	-0.19729585076544798	2.004329764079568	-0.48889526360149743	-0.2314786562137838	1.9358641514583768	-0.37669133669650134	-0.21574836963078073	1.9802375348687549	-0.45510635834710833	-0.18309311040734738	2.0180075862117755	-0.6588983529255902	-0.2283395684804546	1.9540945394930045	-0.6068931140516827	-0.2187740311072124	2.003502329975865	-0.5508944480544576
41	1.3666666666666667	-0.1622455755671234	1.8662575690769	-0.5967536732924192	-0.17335490490029806	1.861967497410347	-0.5368390330180761	-0.19799069981196205	1.7405419211026307	-0.44411168616969243	-0.17948352926194255	1.6160285682751092	-0.42590360745880806	-0.20518086165084057	1.5749627837428932	-0.37339874842517246	-0.19873538764215026	1.5877587476652217	-0.3591809035769447	-0.1762014747077646	1.606991427813413	-0.437403185447299	-0.14937834143898984	1.87063287205049	-0.6650468135147449	-0.17164771605823903	1.7369082015134965	-0.6681773345670221	-0.15469680768627342	1.5855948885562974	-0.7253671275735635	-0.30269197285845334	1.4840479563300442	-1.1739825280282	-0.28245187711730957	1.484370115272494	-1.202027397256314	-0.14228922240346498	1.5728112890681352	-0.7318087378745225	-0.19595094763027576	2.010925576542751	-0.5579923479688177	-0.2388097668314584	2.0472895442928007	-0.5047526188031422	-0.20642950492232523	2.0038632901346283	-0.4658403614889292	-0.22696630876838073	1.9322055416664499	-0.3536967075561235	-0.2213407694477703	1.9769804221349105	-0.4299800430834727	-0.18670701908410367	2.0175138573970717	-0.642384182620613	-0.22998020709344486	1.953451348781858	-0.593157017316169	-0.22165974179392264	2.000352587249348	-0.5411540844830394
